#Comment line ignore any data following # character 
#Hierarchical Translation and Rotation (.htr) file 
[Header]	
#Header keywords are followed by a single value 
FileType HTR		#Single word string
DataType HTRS		#Translation followed by rotation and scale data
FileVersion 1		#integer
NumSegments 84		#integer
NumFrames 2		#integer
DataFrameRate 30		#integer, data frame rate in this file
EulerRotationOrder ZYX
CalibrationUnits mm
RotationUnits Degrees
GlobalAxisofGravity Y
BoneLengthAxis Y
ScaleFactor 1.00
[SegmentNames&Hierarchy]
#CHILD	PARENT
MASTER GLOBAL
root MASTER
chest root
L_mid_tent01 root
R_mid_tent01 root
spine01 root
Bip01_Neck chest
L_humerus chest
R_humerus chest
weapon_bone chest
Bip01_Head Bip01_Neck
eye_left_bone Bip01_Head
eye_right_bone Bip01_Head
L_forearm L_humerus
L_front_hand L_forearm
L_weapon_bone L_forearm
L_front_hand01_01 L_front_hand
L_front_hand02_01 L_front_hand
L_front_hand03_01 L_front_hand
L_front_hand01_02 L_front_hand01_01
L_front_hand02_02 L_front_hand02_01
L_front_hand03_02 L_front_hand03_01
R_forearm R_humerus
R_front_hand R_forearm
R_weapon_bone R_forearm
R_front_hand01_01 R_front_hand
R_front_hand02_01 R_front_hand
R_front_hand03_01 R_front_hand
R_front_hand01_02 R_front_hand01_01
R_front_hand02_02 R_front_hand02_01
R_front_hand03_02 R_front_hand03_01
null_rope01_connect L_mid_tent01
Rope1_Seg01 null_rope01_connect
Rope1_Seg02 Rope1_Seg01
Rope1_Seg03 Rope1_Seg02
Rope1_Seg04 Rope1_Seg03
Rope1_Seg05 Rope1_Seg04
Rope1_Seg06 Rope1_Seg05
Rope1_Seg07 Rope1_Seg06
Rope1_Seg09 Rope1_Seg07
L_mid_hand01 Rope1_Seg09
L_mid_hand02 Rope1_Seg09
L_mid_hand03 Rope1_Seg09
null_rope02_connect R_mid_tent01
Rope2_Seg01 null_rope02_connect
Rope2_Seg02 Rope2_Seg01
Rope2_Seg03 Rope2_Seg02
Rope2_Seg04 Rope2_Seg03
Rope2_Seg05 Rope2_Seg04
Rope2_Seg06 Rope2_Seg05
Rope2_Seg07 Rope2_Seg06
Rope2_Seg09 Rope2_Seg07
R_mid_hand01 Rope2_Seg09
R_mid_hand02 Rope2_Seg09
R_mid_hand03 Rope2_Seg09
spine02 spine01
spine03 spine02
pelvis spine03
null_rope03_connect pelvis
null_rope04_connect pelvis
Rope3_Seg01 null_rope03_connect
Rope3_Seg02 Rope3_Seg01
Rope3_Seg03 Rope3_Seg02
Rope3_Seg04 Rope3_Seg03
Rope3_Seg05 Rope3_Seg04
Rope3_Seg06 Rope3_Seg05
Rope3_Seg07 Rope3_Seg06
Rope3_Seg08 Rope3_Seg07
Rope3_Seg09 Rope3_Seg08
R_rear_hand01 Rope3_Seg09
R_rear_hand02 Rope3_Seg09
R_rear_hand03 Rope3_Seg09
Rope4_Seg01 null_rope04_connect
Rope4_Seg02 Rope4_Seg01
Rope4_Seg03 Rope4_Seg02
Rope4_Seg04 Rope4_Seg03
Rope4_Seg05 Rope4_Seg04
Rope4_Seg06 Rope4_Seg05
Rope4_Seg07 Rope4_Seg06
Rope4_Seg08 Rope4_Seg07
Rope4_Seg09 Rope4_Seg08
L_rear_hand01 Rope4_Seg09
L_rear_hand02 Rope4_Seg09
L_rear_hand03 Rope4_Seg09
[BasePosition]
#SegmentName Tx, Ty, Tz, Rx, Ry, Rz, BoneLength
MASTER 0.000000 0.000000 0.000000 -90.000000 0.000000 0.000000 10.000000 
root 0.000000 0.000000 0.000000 0.000000 0.000000 0.000000 10.000000 
chest 0.000000 0.000000 0.000000 0.000000 0.000000 0.000000 10.000000 
L_mid_tent01 0.000000 0.000000 0.000000 0.000000 0.000000 0.000000 10.000000 
R_mid_tent01 0.000000 0.000000 0.000000 0.000000 0.000000 0.000000 10.000000 
spine01 0.000000 0.000000 0.000000 0.000000 0.000000 0.000000 10.000000 
Bip01_Neck 0.000000 0.000000 0.000000 0.000000 0.000000 0.000000 10.000000 
L_humerus 0.000000 0.000000 0.000000 0.000000 0.000000 0.000000 10.000000 
R_humerus 0.000000 0.000000 0.000000 0.000000 0.000000 0.000000 10.000000 
weapon_bone 0.000000 0.000000 0.000000 0.000000 0.000000 0.000000 10.000000 
Bip01_Head 0.000000 0.000000 0.000000 0.000000 0.000000 0.000000 10.000000 
eye_left_bone 0.000000 0.000000 0.000000 0.000000 0.000000 0.000000 10.000000 
eye_right_bone 0.000000 0.000000 0.000000 0.000000 0.000000 0.000000 10.000000 
L_forearm 0.000000 0.000000 0.000000 0.000000 0.000000 0.000000 10.000000 
L_front_hand 0.000000 0.000000 0.000000 0.000000 0.000000 0.000000 10.000000 
L_weapon_bone 0.000000 0.000000 0.000000 0.000000 0.000000 0.000000 10.000000 
L_front_hand01_01 0.000000 0.000000 0.000000 0.000000 0.000000 0.000000 10.000000 
L_front_hand02_01 0.000000 0.000000 0.000000 0.000000 0.000000 0.000000 10.000000 
L_front_hand03_01 0.000000 0.000000 0.000000 0.000000 0.000000 0.000000 10.000000 
L_front_hand01_02 0.000000 0.000000 0.000000 0.000000 0.000000 0.000000 10.000000 
L_front_hand02_02 0.000000 0.000000 0.000000 0.000000 0.000000 0.000000 10.000000 
L_front_hand03_02 0.000000 0.000000 0.000000 0.000000 0.000000 0.000000 10.000000 
R_forearm 0.000000 0.000000 0.000000 0.000000 0.000000 0.000000 10.000000 
R_front_hand 0.000000 0.000000 0.000000 0.000000 0.000000 0.000000 10.000000 
R_weapon_bone 0.000000 0.000000 0.000000 0.000000 0.000000 0.000000 10.000000 
R_front_hand01_01 0.000000 0.000000 0.000000 0.000000 0.000000 0.000000 10.000000 
R_front_hand02_01 0.000000 0.000000 0.000000 0.000000 0.000000 0.000000 10.000000 
R_front_hand03_01 0.000000 0.000000 0.000000 0.000000 0.000000 0.000000 10.000000 
R_front_hand01_02 0.000000 0.000000 0.000000 0.000000 0.000000 0.000000 10.000000 
R_front_hand02_02 0.000000 0.000000 0.000000 0.000000 0.000000 0.000000 10.000000 
R_front_hand03_02 0.000000 0.000000 0.000000 0.000000 0.000000 0.000000 10.000000 
null_rope01_connect 0.000000 0.000000 0.000000 0.000000 0.000000 0.000000 10.000000 
Rope1_Seg01 0.000000 0.000000 0.000000 0.000000 0.000000 0.000000 10.000000 
Rope1_Seg02 0.000000 0.000000 0.000000 0.000000 0.000000 0.000000 10.000000 
Rope1_Seg03 0.000000 0.000000 0.000000 0.000000 0.000000 0.000000 10.000000 
Rope1_Seg04 0.000000 0.000000 0.000000 0.000000 0.000000 0.000000 10.000000 
Rope1_Seg05 0.000000 0.000000 0.000000 0.000000 0.000000 0.000000 10.000000 
Rope1_Seg06 0.000000 0.000000 0.000000 0.000000 0.000000 0.000000 10.000000 
Rope1_Seg07 0.000000 0.000000 0.000000 0.000000 0.000000 0.000000 10.000000 
Rope1_Seg09 0.000000 0.000000 0.000000 0.000000 0.000000 0.000000 10.000000 
L_mid_hand01 0.000000 0.000000 0.000000 0.000000 0.000000 0.000000 10.000000 
L_mid_hand02 0.000000 0.000000 0.000000 0.000000 0.000000 0.000000 10.000000 
L_mid_hand03 0.000000 0.000000 0.000000 0.000000 0.000000 0.000000 10.000000 
null_rope02_connect 0.000000 0.000000 0.000000 0.000000 0.000000 0.000000 10.000000 
Rope2_Seg01 0.000000 0.000000 0.000000 0.000000 0.000000 0.000000 10.000000 
Rope2_Seg02 0.000000 0.000000 0.000000 0.000000 0.000000 0.000000 10.000000 
Rope2_Seg03 0.000000 0.000000 0.000000 0.000000 0.000000 0.000000 10.000000 
Rope2_Seg04 0.000000 0.000000 0.000000 0.000000 0.000000 0.000000 10.000000 
Rope2_Seg05 0.000000 0.000000 0.000000 0.000000 0.000000 0.000000 10.000000 
Rope2_Seg06 0.000000 0.000000 0.000000 0.000000 0.000000 0.000000 10.000000 
Rope2_Seg07 0.000000 0.000000 0.000000 0.000000 0.000000 0.000000 10.000000 
Rope2_Seg09 0.000000 0.000000 0.000000 0.000000 0.000000 0.000000 10.000000 
R_mid_hand01 0.000000 0.000000 0.000000 0.000000 0.000000 0.000000 10.000000 
R_mid_hand02 0.000000 0.000000 0.000000 0.000000 0.000000 0.000000 10.000000 
R_mid_hand03 0.000000 0.000000 0.000000 0.000000 0.000000 0.000000 10.000000 
spine02 0.000000 0.000000 0.000000 0.000000 0.000000 0.000000 10.000000 
spine03 0.000000 0.000000 0.000000 0.000000 0.000000 0.000000 10.000000 
pelvis 0.000000 0.000000 0.000000 0.000000 0.000000 0.000000 10.000000 
null_rope03_connect 0.000000 0.000000 0.000000 0.000000 0.000000 0.000000 10.000000 
null_rope04_connect 0.000000 0.000000 0.000000 0.000000 0.000000 0.000000 10.000000 
Rope3_Seg01 0.000000 0.000000 0.000000 0.000000 0.000000 0.000000 10.000000 
Rope3_Seg02 0.000000 0.000000 0.000000 0.000000 0.000000 0.000000 10.000000 
Rope3_Seg03 0.000000 0.000000 0.000000 0.000000 0.000000 0.000000 10.000000 
Rope3_Seg04 0.000000 0.000000 0.000000 0.000000 0.000000 0.000000 10.000000 
Rope3_Seg05 0.000000 0.000000 0.000000 0.000000 0.000000 0.000000 10.000000 
Rope3_Seg06 0.000000 0.000000 0.000000 0.000000 0.000000 0.000000 10.000000 
Rope3_Seg07 0.000000 0.000000 0.000000 0.000000 0.000000 0.000000 10.000000 
Rope3_Seg08 0.000000 0.000000 0.000000 0.000000 0.000000 0.000000 10.000000 
Rope3_Seg09 0.000000 0.000000 0.000000 0.000000 0.000000 0.000000 10.000000 
R_rear_hand01 0.000000 0.000000 0.000000 0.000000 0.000000 0.000000 10.000000 
R_rear_hand02 0.000000 0.000000 0.000000 0.000000 0.000000 0.000000 10.000000 
R_rear_hand03 0.000000 0.000000 0.000000 0.000000 0.000000 0.000000 10.000000 
Rope4_Seg01 0.000000 0.000000 0.000000 0.000000 0.000000 0.000000 10.000000 
Rope4_Seg02 0.000000 0.000000 0.000000 0.000000 0.000000 0.000000 10.000000 
Rope4_Seg03 0.000000 0.000000 0.000000 0.000000 0.000000 0.000000 10.000000 
Rope4_Seg04 0.000000 0.000000 0.000000 0.000000 0.000000 0.000000 10.000000 
Rope4_Seg05 0.000000 0.000000 0.000000 0.000000 0.000000 0.000000 10.000000 
Rope4_Seg06 0.000000 0.000000 0.000000 0.000000 0.000000 0.000000 10.000000 
Rope4_Seg07 0.000000 0.000000 0.000000 0.000000 0.000000 0.000000 10.000000 
Rope4_Seg08 0.000000 0.000000 0.000000 0.000000 0.000000 0.000000 10.000000 
Rope4_Seg09 0.000000 0.000000 0.000000 0.000000 0.000000 0.000000 10.000000 
L_rear_hand01 0.000000 0.000000 0.000000 0.000000 0.000000 0.000000 10.000000 
L_rear_hand02 0.000000 0.000000 0.000000 0.000000 0.000000 0.000000 10.000000 
L_rear_hand03 0.000000 0.000000 0.000000 0.000000 0.000000 0.000000 10.000000 
#Beginning of Data. Separated by tabs
#Fr	Tx	Ty	Tz	Rx	Ry	Rz	SF
[MASTER]
65 -97.512817 -39.894421 -1062.306274 0.001346 0.001923 -20.001186 1067.518066
66 -97.512817 -33.909470 -1096.474976 0.001346 0.001923 -20.001186 1101.324707
[root]
65 -21.297178 444.669037 1984.097412 -70.192566 -26.380285 -101.198486 2033.427368
66 -19.139086 444.668976 2030.454346 -69.792229 -27.914930 -102.168396 2078.663574
[chest]
65 -84.512650 -34.090519 0.000000 2.256422 1.709832 153.450424 91.129311
66 -84.512650 -34.090519 0.000000 2.986290 1.488440 154.407211 91.129311
[L_mid_tent01]
65 27.298794 22.179354 -249.918777 45.959770 56.160095 140.399948 252.381729
66 27.298792 22.179356 -249.918777 44.503868 56.836044 138.290253 252.381729
[R_mid_tent01]
65 23.228794 24.509907 226.238495 39.102798 -53.036694 -166.657242 228.744751
66 23.228794 24.509907 226.238495 42.459980 -52.023262 -168.111252 228.744751
[spine01]
65 -0.361383 -0.195265 0.000000 -0.000001 -0.000007 22.052340 0.410763
66 -0.361383 -0.195265 0.000000 -0.000001 -0.000007 22.052340 0.410763
[Bip01_Neck]
65 165.484543 71.581718 0.000119 176.643677 -1.657967 43.431911 180.302734
66 165.484543 71.581718 0.000119 176.643677 -1.657967 43.431911 180.302734
[L_humerus]
65 -13.983130 -135.272980 -120.471481 178.964996 1.892242 -146.979980 181.680161
66 -13.983130 -135.272980 -120.471481 178.964996 1.892241 -146.979980 181.680161
[R_humerus]
65 -13.983309 -135.273102 125.287651 176.357590 6.146128 -145.149719 184.909012
66 -13.983309 -135.273102 125.287651 176.357590 6.146129 -145.149719 184.909012
[weapon_bone]
65 235.964890 -300.705902 0.000000 0.000000 -89.951546 -128.212341 382.234833
66 235.964890 -300.705902 0.000000 0.000000 -89.951546 -128.212341 382.234833
[Bip01_Head]
65 213.430084 185.829803 11.273094 -1.084328 7.374310 -43.377853 283.217590
66 213.433258 185.820847 11.387740 -0.177174 8.233976 -43.288692 283.218689
[eye_left_bone]
65 -24.626970 125.451866 -64.772606 0.000000 -90.000000 -99.840431 143.318359
66 -24.626970 125.451866 -64.772606 0.000000 -90.000000 -99.840431 143.318359
[eye_right_bone]
65 -24.626970 125.451866 64.327362 0.000000 -89.965736 80.156380 143.117676
66 -24.626970 125.451866 64.327362 0.000000 -89.965736 80.156380 143.117676
[L_forearm]
65 322.776093 0.000000 -0.000119 0.001130 -0.002057 -147.582275 322.776093
66 322.776093 0.000000 -0.000119 0.001130 -0.002057 -147.582275 322.776093
[L_front_hand]
65 241.149185 -0.042021 -3.300071 -158.977127 -1.837212 -27.424788 241.171753
66 241.149185 -0.042021 -3.300071 -158.644089 -1.838090 -27.424532 241.171753
[L_weapon_bone]
65 156.183838 0.000000 0.000000 0.000014 0.000007 0.000001 156.183838
66 156.183838 0.000000 0.000000 0.000014 0.000007 0.000001 156.183838
[L_front_hand01_01]
65 86.095154 20.947098 -0.655860 -0.366594 -0.477154 75.385574 88.609184
66 86.095154 20.947098 -0.655860 -0.366594 -0.477154 75.385574 88.609184
[L_front_hand02_01]
65 86.935165 -11.437475 24.513514 154.399811 -59.883842 -61.369587 91.046425
66 86.935165 -11.437475 24.513514 154.399796 -59.883835 -61.369587 91.046425
[L_front_hand03_01]
65 86.637497 -14.123976 -20.424902 -153.913849 58.118122 -62.702850 90.126129
66 86.637497 -14.123976 -20.424902 -153.913849 58.118107 -62.702850 90.126129
[L_front_hand01_02]
65 71.020905 -0.000179 0.000030 0.001502 0.001804 -10.433344 71.020905
66 71.020905 -0.000179 0.000030 0.001476 0.001825 -12.083299 71.020905
[L_front_hand02_02]
65 71.020927 -0.000119 0.000060 0.001502 0.001804 -10.433344 71.020927
66 71.020927 -0.000119 0.000060 0.001476 0.001825 -12.083299 71.020927
[L_front_hand03_02]
65 71.020905 -0.000060 0.000060 0.001502 0.001804 -10.433344 71.020905
66 71.020905 -0.000060 0.000060 0.001476 0.001825 -12.083299 71.020905
[R_forearm]
65 322.776428 -0.000060 0.000030 0.114825 0.181654 -148.389832 322.776428
66 322.776428 -0.000060 0.000030 0.114825 0.181654 -148.389832 322.776428
[R_front_hand]
65 238.847015 -0.006795 2.210259 -2.635298 -10.645461 -26.312506 238.857239
66 238.847015 -0.006795 2.210259 -2.635298 -10.645461 -26.312506 238.857239
[R_weapon_bone]
65 155.664093 0.002503 -0.000030 0.003487 0.001180 -90.988930 155.664078
66 155.664093 0.002503 -0.000030 0.003487 0.001180 -90.988930 155.664078
[R_front_hand01_01]
65 87.624611 14.231146 22.918642 -154.633484 -59.950607 61.746025 91.683487
66 87.624611 14.231146 22.918642 -154.633499 -59.950619 61.746044 91.683487
[R_front_hand02_01]
65 89.356956 14.367283 -19.491137 154.602676 58.302864 63.744389 92.579636
66 89.356956 14.367283 -19.491137 154.602661 58.302849 63.744389 92.579636
[R_front_hand03_01]
65 87.286232 -22.307278 -0.143439 0.162155 -0.423168 -75.767921 90.091743
66 87.286232 -22.307278 -0.143439 0.162155 -0.423168 -75.767921 90.091743
[R_front_hand01_02]
65 71.020905 0.000060 0.000119 0.001800 0.001506 10.173478 71.020905
66 71.020905 0.000060 0.000119 0.001813 0.001491 11.142080 71.020905
[R_front_hand02_02]
65 71.020844 -0.000030 -0.000119 0.001800 0.001506 10.173478 71.020836
66 71.020844 -0.000030 -0.000119 0.001813 0.001491 11.142080 71.020836
[R_front_hand03_02]
65 71.020905 0.000000 0.000030 0.001800 0.001506 10.173478 71.020905
66 71.020905 0.000000 0.000030 0.001813 0.001491 11.142080 71.020905
[null_rope01_connect]
65 328.732483 0.000000 -0.000238 -135.582474 -23.772820 123.725983 328.732483
66 328.732483 0.000000 -0.000238 -133.507065 -22.804804 124.615532 328.732483
[Rope1_Seg01]
65 -0.000105 0.000000 0.000000 -39.669659 29.613678 101.147385 0.000105
66 -0.000104 0.000000 0.000000 -41.575447 30.525509 99.757042 0.000104
[Rope1_Seg02]
65 139.999863 -0.000179 0.000000 -26.311892 18.063400 9.061045 139.999863
66 139.999863 -0.000179 0.000000 -23.983028 15.488593 8.772406 139.999863
[Rope1_Seg03]
65 139.999924 0.000060 -0.000060 -22.932436 14.156917 16.314812 139.999924
66 139.999924 0.000060 -0.000060 -22.477850 13.292785 16.217087 139.999924
[Rope1_Seg04]
65 139.999924 -0.000060 -0.000119 -11.470985 2.429097 21.884674 139.999924
66 139.999924 -0.000060 -0.000119 -12.227366 3.375041 22.583673 139.999924
[Rope1_Seg05]
65 139.999832 0.000119 -0.000060 -4.905246 -7.065087 24.128443 139.999832
66 139.999832 0.000119 -0.000060 -5.236242 -6.424897 25.403440 139.999832
[Rope1_Seg06]
65 139.999954 0.000119 -0.000060 -0.516735 -3.774343 11.617807 139.999954
66 139.999954 0.000119 -0.000060 -0.470439 -3.634473 12.013193 139.999954
[Rope1_Seg07]
65 139.999985 0.000060 0.000000 0.228875 -1.942379 6.168935 139.999985
66 139.999985 0.000060 0.000000 0.285179 -1.806825 6.202882 139.999985
[Rope1_Seg09]
65 121.602913 0.000119 -0.000089 -89.793175 -1.359789 0.847147 121.602913
66 121.602913 0.000119 -0.000089 -89.793175 -1.359789 0.847147 121.602913
[L_mid_hand01]
65 103.859421 1.038730 8.195221 130.544373 -67.584534 -38.866943 104.187431
66 103.859421 1.038730 8.195221 130.544373 -67.584534 -38.866943 104.187431
[L_mid_hand02]
65 105.572853 -4.139662 -10.864139 -168.923172 43.409309 -73.498886 106.211075
66 105.572853 -4.139662 -10.864139 -168.923172 43.409309 -73.498886 106.211075
[L_mid_hand03]
65 104.641464 17.579376 -3.913581 -6.012627 17.808174 74.893669 106.179977
66 104.641464 17.579376 -3.913581 -6.012627 17.808178 74.893677 106.179977
[null_rope02_connect]
65 328.732849 0.000179 -0.000119 -107.625038 -14.767588 -1.344936 328.732849
66 328.732849 0.000179 -0.000119 -108.470695 -14.064134 0.795422 328.732849
[Rope2_Seg01]
65 0.000105 0.000000 0.000000 103.234093 -20.341127 23.220228 0.000105
66 0.000104 0.000000 0.000000 97.229904 -8.405291 27.332287 0.000104
[Rope2_Seg02]
65 139.999741 -0.000060 -0.000119 -10.174081 -8.733363 -21.529022 139.999756
66 139.999741 -0.000060 -0.000119 -6.429927 -9.373957 -16.958282 139.999756
[Rope2_Seg03]
65 140.000107 0.000030 0.000000 -4.270503 -2.884574 -9.580846 140.000107
66 140.000107 0.000030 0.000000 -3.451385 -5.582868 -7.231139 140.000107
[Rope2_Seg04]
65 139.999802 0.000000 -0.000060 -4.266235 -0.472462 -12.148903 139.999802
66 139.999802 0.000000 -0.000060 -5.500734 -1.420366 -15.866752 139.999802
[Rope2_Seg05]
65 139.999985 -0.000060 0.000119 -5.231219 2.638271 -25.919134 139.999985
66 139.999985 -0.000060 0.000119 -5.107279 3.384646 -27.647551 139.999985
[Rope2_Seg06]
65 139.999893 -0.000030 -0.000119 -0.319984 3.490313 -19.593342 139.999893
66 139.999893 -0.000030 -0.000119 0.024777 2.583556 -14.820436 139.999893
[Rope2_Seg07]
65 139.999893 0.000060 -0.000060 1.309155 1.775648 -10.474512 139.999893
66 139.999893 0.000060 -0.000060 0.869281 1.327805 -8.126546 139.999893
[Rope2_Seg09]
65 121.338966 0.000089 -0.000060 33.793236 -1.359788 -0.847141 121.338966
66 121.338966 0.000089 -0.000060 33.793236 -1.359788 -0.847141 121.338966
[R_mid_hand01]
65 104.680779 11.144459 -10.335981 -16.212059 45.237240 70.462852 105.778534
66 104.680779 11.144459 -10.335981 -16.212063 45.237240 70.462852 105.778534
[R_mid_hand02]
65 104.070427 2.443552 8.231699 49.067375 -67.749794 39.286476 104.424065
66 104.070427 2.443552 8.231699 49.067387 -67.749794 39.286469 104.424065
[R_mid_hand03]
65 106.028137 -11.221827 -5.996406 -177.101105 15.551026 -76.585571 106.788818
66 106.028137 -11.221827 -5.996406 -177.101105 15.551026 -76.585571 106.788818
[spine02]
65 129.756927 0.001550 0.000119 0.558133 -4.021112 -15.751253 129.756927
66 129.756927 0.001550 0.000119 0.558265 -4.021095 -15.755008 129.756927
[spine03]
65 78.613892 0.081577 -4.899039 2.014752 3.772090 18.237646 78.766434
66 78.613892 0.081578 -4.899039 2.015287 3.771971 18.240393 78.766434
[pelvis]
65 169.435242 0.051022 0.000000 -0.070947 -0.177491 17.664711 169.435257
66 169.435242 0.051022 0.000000 -0.070944 -0.177492 17.662836 169.435257
[null_rope03_connect]
65 -1.257226 -2.466202 137.391083 -47.039967 -61.586300 126.434975 137.418976
66 -1.257226 -2.466202 137.391083 -47.219673 -61.354591 128.330887 137.418976
[null_rope04_connect]
65 -1.259640 -2.480268 -137.844437 -47.039967 -61.586300 126.434975 137.872513
66 -1.259640 -2.480268 -137.844437 -47.219673 -61.354591 128.330887 137.872513
[Rope3_Seg01]
65 0.000000 0.000047 0.000000 -164.958862 -73.001068 126.015694 0.000047
66 0.000000 0.000048 0.000000 -165.924957 -74.095467 126.561737 0.000048
[Rope3_Seg02]
65 139.999924 -0.000119 0.000060 -7.827756 12.422099 -10.331483 139.999924
66 139.999924 -0.000119 0.000060 -8.555244 13.727485 -11.103125 139.999924
[Rope3_Seg03]
65 139.999924 -0.000119 0.000119 -23.599106 34.928898 -25.579029 139.999924
66 139.999924 -0.000119 0.000119 -21.580938 34.341194 -23.495007 139.999924
[Rope3_Seg04]
65 139.999924 0.000119 0.000000 -7.336251 28.284573 -8.362858 139.999924
66 139.999924 0.000119 0.000000 -5.945651 24.490623 -6.881284 139.999924
[Rope3_Seg05]
65 139.999924 -0.000238 0.000060 -2.307133 31.430468 -9.067137 139.999924
66 139.999924 -0.000238 0.000060 -2.739667 30.785357 -9.154579 139.999924
[Rope3_Seg06]
65 139.999893 -0.000119 -0.000060 3.344848 44.020382 -15.791451 139.999893
66 139.999893 -0.000119 -0.000060 2.238610 47.135235 -17.629715 139.999893
[Rope3_Seg07]
65 139.999771 0.000060 -0.000119 4.137316 12.326853 -5.851259 139.999771
66 139.999771 0.000060 -0.000119 4.259040 13.004278 -6.261007 139.999771
[Rope3_Seg08]
65 139.999985 -0.000060 0.000000 2.098215 4.354960 -2.475483 139.999985
66 139.999985 -0.000060 0.000000 2.089333 4.348146 -2.518020 139.999985
[Rope3_Seg09]
65 90.185997 -0.000179 -0.000060 89.793228 -1.359877 -0.847183 90.185997
66 90.185997 -0.000179 -0.000060 89.793228 -1.359877 -0.847183 90.185997
[R_rear_hand01]
65 103.366196 -6.073594 -10.757982 -177.714203 24.565960 -73.910950 104.101845
66 103.366196 -6.073594 -10.757982 -177.714203 24.565966 -73.910957 104.101845
[R_rear_hand02]
65 100.509819 12.039542 -7.992327 -12.874829 36.868488 72.167213 101.543350
66 100.509819 12.039542 -7.992327 -12.874834 36.868492 72.167213 101.543350
[R_rear_hand03]
65 101.539970 5.215704 5.435467 71.484581 -71.816628 21.513813 101.819031
66 101.539970 5.215704 5.435467 71.484634 -71.816666 21.513830 101.819031
[Rope4_Seg01]
65 -0.000095 0.000000 0.000000 -60.347679 -42.843674 -158.539764 0.000095
66 -0.000096 0.000000 0.000000 -61.045425 -45.563065 -157.102875 0.000096
[Rope4_Seg02]
65 139.999985 0.000060 0.000119 2.262134 12.730811 2.414325 139.999985
66 139.999985 0.000060 0.000119 2.448448 13.171938 1.569172 139.999985
[Rope4_Seg03]
65 139.999924 0.000000 -0.000238 11.342471 21.738430 -0.019811 139.999924
66 139.999924 0.000000 -0.000238 11.965141 23.121561 -1.379301 139.999924
[Rope4_Seg04]
65 139.999985 0.000000 0.000119 35.385960 19.470306 -14.274803 139.999985
66 139.999985 0.000000 0.000119 33.816067 19.579617 -17.275175 139.999985
[Rope4_Seg05]
65 139.999802 -0.000060 -0.000119 110.890526 41.381191 -0.891043 139.999802
66 139.999802 -0.000060 -0.000119 79.308296 36.636765 -4.145484 139.999802
[Rope4_Seg06]
65 139.999924 0.000000 0.000060 39.521164 -7.920507 -43.979305 139.999924
66 139.999924 0.000000 0.000060 55.048134 13.005963 -48.962601 139.999924
[Rope4_Seg07]
65 139.999802 0.000000 0.000000 1.423317 -7.710422 -5.479879 139.999802
66 139.999802 0.000000 0.000000 2.243993 -8.407333 -7.041960 139.999802
[Rope4_Seg08]
65 139.999924 0.000000 0.000119 -1.119532 -3.369955 -2.261468 139.999924
66 139.999924 0.000000 0.000119 -0.988488 -3.474408 -2.601006 139.999924
[Rope4_Seg09]
65 90.185791 0.000060 0.000060 -135.617828 2.228885 0.850567 90.185791
66 90.185791 0.000060 0.000060 -135.617828 2.228885 0.850567 90.185791
[L_rear_hand01]
65 101.696655 -8.392275 -7.654577 -12.874829 -36.868488 107.832764 102.329041
66 101.696655 -8.392275 -7.654577 -12.874829 -36.868488 107.832764 102.329041
[L_rear_hand02]
65 102.726799 -1.568258 5.773216 71.484581 71.816628 158.486160 102.900848
66 102.726799 -1.568258 5.773216 71.484581 71.816628 158.486160 102.900848
[L_rear_hand03]
65 104.552910 9.721220 -10.420293 -177.714203 -24.565960 -106.089035 105.519653
66 104.552910 9.721220 -10.420293 -177.714203 -24.565960 -106.089035 105.519653
